<svg width="1024" height="1024" xmlns="http://www.w3.org/2000/svg" p-id="832" version="1.1" class="icon" t="1666438456160">

 <g>
  <title>Layer 1</title>
  <path id="svg_2" p-id="834" fill="#070706" d="m454.87785,321.736c-61.387,61.386 -124.82,121.068 -184.774,184.16c-44.404,46.722 -40.925,113.906 5.593,161.924c55.18,56.68 111.996,111.724 168.063,167.45c21.212,21.963 20.94,47.063 5.388,70.39c-14.392,21.485 -35.058,34.65 -63.092,22.577a132.664,132.664 0 0 1 -35.672,-25.578c-51.77,-52.315 -104.767,-103.47 -155.99,-156.4c-89.898,-92.83 -90.921,-232.451 -0.478,-324.668c127.07,-129.867 256.05,-257.688 384.485,-386.054c28.307,-28.306 63.843,-30.148 87.033,-6.002s21.008,55.657 -6.411,84.509q-43.176,45.426 -86.692,90.443c-30.693,47.609 -71.823,84.645 -117.453,117.249z"/>
  <path id="svg_3" p-id="835" fill="#B4B2B1" d="m677.02885,641.015l-183.614,0c-40.925,0 -70.186,-24.76 -69.504,-58.113c0.614,-32.262 27.966,-55.998 68.208,-56.135q187.025,-0.886 374.05,0c39.833,0 62.342,22.031 62.683,56.476c0,35.74 -23.055,57.294 -64.934,57.704c-62.137,0.545 -124.547,0.068 -186.889,0.068z"/>
  <path id="svg_4" p-id="836" fill="#EAA240" d="m386.05585,928.1c60.569,-7.366 79.053,-37.241 57.704,-92.967c63.842,33.49 110.837,26.056 162.47,-25.577c26.465,-26.465 52.52,-53.339 79.598,-79.19s57.431,-26.464 81.44,-2.728s23.532,54.566 -1.978,81.44c-34.104,35.195 -67.457,70.595 -103.47,103.266c-76.939,69.777 -199.917,75.915 -275.764,15.756z"/>
  <path id="svg_5" p-id="837" fill="#EAA340" d="m454.87785,321.736a1295.942,1295.942 0 0 1 117.453,-117.249c89.693,27.829 142.349,101.152 202.372,164.926c19.575,20.871 11.663,53.747 -10.777,72.777a53.338,53.338 0 0 1 -73.869,-2.183a821.627,821.627 0 0 1 -74.414,-74.278c-44.13,-52.315 -96.855,-66.502 -160.765,-43.993z"/>
 </g>
</svg>