<?xml version="1.0" standalone="no"?><!DOCTYPE svg PUBLIC "-//W3C//DTD SVG 1.1//EN" "http://www.w3.org/Graphics/SVG/1.1/DTD/svg11.dtd"><svg t="1693212326877" class="icon" viewBox="0 0 1024 1024" version="1.1" xmlns="http://www.w3.org/2000/svg" p-id="1513" xmlns:xlink="http://www.w3.org/1999/xlink" width="200" height="200"><path d="M996.151582 56.512834c-7.985977-10.851968-17.609948-20.884939-28.870916-28.869915C944.142734 10.441969 916.090816 0 885.376906 0h-746.957812c-30.71491 0-59.175827 10.442969-82.313758 27.641919-10.851968 7.985977-20.884939 17.609948-28.870916 28.870915C10.444469 79.446767 0.0015 107.702684 0.0015 138.621594v746.957812c0 30.71491 10.442969 59.175827 27.641919 81.90476 7.985977 10.851968 17.609948 20.884939 28.870915 28.869915 23.137932 17.19995 51.18985 27.642919 81.90376 27.642919h746.958812c30.71391 0 59.174827-10.442969 81.90376-27.641919 10.851968-7.985977 20.884939-17.609948 28.869916-28.870915 17.19995-23.137932 27.642919-51.18985 27.642919-81.90376V138.621594c0-30.918909-10.851968-59.174827-27.641919-82.10876zM366.519426 467.053632c16.379952-36.241894 34.808898-71.869789 52.212847-107.497685h59.994824c-14.742957 29.279914-31.123909 57.94683-41.565878 85.793748 24.365929-1.432996 46.479864-2.661992 72.483788-4.094988-13.922959 27.846918-26.208923 52.622846-38.493887 77.398774-1.638995 3.27599-3.27699 6.75698-4.914986 10.03297-12.899962 25.799924-12.899962 26.003924 15.766954 26.618922 3.070991 0 5.937983 0.409999 11.465966 1.022997-7.984977 15.766954-15.151956 30.099912-22.727933 44.227871-1.228996 2.252993-4.709986 4.914986-6.96198 4.914985-21.089938 0-42.384876 0.613998-63.474814-1.638995-15.151956-1.637995-21.089938-13.308961-15.151955-27.641919 7.165979-17.813948 15.765954-35.218897 23.75193-52.827845 2.661992-6.142982 5.527984-12.079965 9.418972-21.089939-11.671966 0-20.270941 0.204999-28.870915 0-24.775927-1.023997-33.170903-12.285964-22.932933-35.218896zM76.171277 658.298071c-12.694963-22.113935-24.160929-42.589875-35.831895-63.064815 0-2.457993 22.932933-72.484788 17.813948-151.726555h63.064815S123.471138 591.956266 76.171277 658.298071z m147.221569-7.984976c0.613998 37.060891-24.979927 37.060891-24.979927 37.060891h-36.242894l-38.084889-50.369852h39.927883v-277.449187h59.993825c0 90.913734-0.203999 199.845415-0.613998 290.758148z m87.226744 4.709986c-28.665916-25.185926-44.22687-100.332706-43.817872-211.925379h59.174827c-4.503987 58.764828 14.537957 137.187598 14.537957 137.187598s-17.403949 38.494887-29.894912 74.736781z m129.81762 26.003924c-1.637995 3.070991-6.75698 5.937983-10.44297 6.141982-27.846918 0.409999-55.899836 0.204999-87.841742 0.204999 12.080965-24.160929 22.113935-43.817872 30.918909-61.017821h95.62172c-10.646969 20.884939-19.041944 38.084888-28.255917 54.66984z m244.481283 6.551981H469.717124c10.442969-20.679939 29.075915-57.536831 29.075915-57.536832h61.42782V441.868705h-38.289888v-58.765827h138.621594v57.94683h-37.879889v189.196446h62.245817v57.332832z m284.614167-43.408873c0 43.408873-42.384876 42.179876-42.384876 42.179876h-55.284838l-23.137932-49.755854 59.994824 0.204999s0.613998-45.046868 0-60.608822c-0.409999-13.104962-7.575978-21.499937-20.885939-21.703936-26.617922-0.614998-53.441843-0.204999-82.721758-0.205v132.273613h-59.379826V555.100374h-59.994824v-61.222821h58.355829v-51.803848h-38.699887v-57.94683h39.314885v-24.570928h59.993824l0.409999 24.570928h47.707861s44.023871-1.023997 44.22787 41.769877c0.204999 12.695963 0.409999 54.261841 0.409999 68.1858 50.574852-0.204999 72.074789 10.032971 72.074789 45.250868v104.836693z m-25.389926-200.459413h-31.941906v-30.507911c0-11.056968 5.527984-21.294938 14.946956-27.23292 10.646969-6.75698 25.389926-11.056968 39.313885 2.251994 0.613998 0.409999 1.023997 1.023997 1.432995 1.637995 19.246944 20.270941 4.094988 53.851842-23.75193 53.851842z" fill="#FF2742" p-id="1514"></path><path d="M805.52114 493.877553h39.722884V441.868705h-40.131883z" fill="#FF2742" p-id="1515"></path></svg>